<svg width="390" height="303" viewBox="0 0 390 303" fill="none" xmlns="http://www.w3.org/2000/svg">
<g filter="url(#filter0_ddif_4_412)">
<path d="M116.235 101.018C116.235 94.9393 114.637 91.3987 111.441 90.396H134.189C132.811 90.6467 131.651 91.6807 130.711 93.498C129.771 95.2527 129.301 97.7593 129.301 101.018V144.352H141.991C146.879 144.352 150.201 143.851 151.955 142.848C153.773 141.845 155.527 139.809 157.219 136.738L154.681 153H111.911C113.165 152.749 114.199 151.621 115.013 149.616C115.828 147.611 116.235 144.853 116.235 141.344V101.018ZM194.062 154.41C184.976 154.41 177.581 151.465 171.878 145.574C166.238 139.621 163.418 131.975 163.418 122.638C163.418 116.434 164.797 110.763 167.554 105.624C170.374 100.423 174.322 96.3493 179.398 93.404C184.474 90.4587 190.083 88.986 196.224 88.986C205.248 88.986 212.549 91.9627 218.126 97.916C223.766 103.807 226.586 111.421 226.586 120.758C226.586 130.283 223.547 138.273 217.468 144.728C211.39 151.183 203.588 154.41 194.062 154.41ZM196.224 144.728C201.175 144.728 205.186 142.785 208.256 138.9C211.39 134.952 212.956 129.751 212.956 123.296C212.956 115.901 211.233 109.917 207.786 105.342C204.34 100.767 199.702 98.48 193.874 98.48C188.924 98.48 184.882 100.391 181.748 104.214C178.678 107.974 177.142 113.144 177.142 119.724C177.142 127.307 178.834 133.385 182.218 137.96C185.602 142.472 190.271 144.728 196.224 144.728ZM238.05 101.018C238.05 94.9393 236.452 91.3987 233.256 90.396H256.004C254.625 90.6467 253.466 91.6807 252.526 93.498C251.586 95.2527 251.116 97.7593 251.116 101.018V144.352H263.806C268.694 144.352 272.015 143.851 273.77 142.848C275.587 141.845 277.342 139.809 279.034 136.738L276.496 153H233.726C234.979 152.749 236.013 151.621 236.828 149.616C237.642 147.611 238.05 144.853 238.05 141.344V101.018ZM65.9344 179.46C65.9344 175.82 64.6544 173.68 62.0944 173.04H76.6744L87.2944 197.22L97.7944 173.04H110.934C110.014 173.2 109.234 173.86 108.594 175.02C107.994 176.18 107.694 177.72 107.694 179.64V206.22C107.694 207.74 107.854 208.98 108.174 209.94C108.494 210.9 108.914 211.64 109.434 212.16C109.954 212.68 110.454 212.96 110.934 213H96.6544C97.4544 212.88 98.1344 212.26 98.6944 211.14C99.2544 209.98 99.5344 208.34 99.5344 206.22V183.42L86.0344 213.96L72.1744 183.48V205.86C72.1744 207.46 72.3744 208.8 72.7744 209.88C73.1744 210.92 73.6544 211.68 74.2144 212.16C74.7744 212.64 75.3544 212.92 75.9544 213H62.2744C62.8744 212.92 63.4344 212.64 63.9544 212.16C64.5144 211.68 64.9744 210.92 65.3344 209.88C65.7344 208.8 65.9344 207.46 65.9344 205.86V179.46ZM116.869 191.46C116.869 190.02 116.689 188.88 116.329 188.04C115.969 187.16 115.529 186.5 115.009 186.06C114.529 185.58 113.849 185.24 112.969 185.04H124.549V202.26C124.589 206.14 125.929 208.08 128.569 208.08C130.169 208.08 131.509 207.46 132.589 206.22C133.669 204.98 134.209 203.52 134.209 201.84V191.04C134.209 189.4 133.969 188.06 133.489 187.02C133.009 185.98 132.249 185.32 131.209 185.04H141.829V204.24C141.829 206.04 142.069 207.4 142.549 208.32C143.029 209.24 143.869 209.7 145.069 209.7H145.909L134.449 214.14L134.389 209.76C133.309 211.04 131.949 212.06 130.309 212.82C128.669 213.54 127.089 213.9 125.569 213.9C119.769 213.86 116.869 210.54 116.869 203.94V191.46ZM149.98 193.74C149.98 191.78 149.72 190.36 149.2 189.48C148.68 188.6 147.84 188.16 146.68 188.16H145.84L157.36 183.66L157.42 187.98C158.38 186.86 159.7 185.9 161.38 185.1C163.06 184.3 164.68 183.9 166.24 183.9C168.84 183.9 170.94 184.7 172.54 186.3C174.14 187.86 174.94 190.32 174.94 193.68V206.64C174.94 208.08 175.08 209.26 175.36 210.18C175.68 211.1 176.06 211.78 176.5 212.22C176.94 212.66 177.4 212.92 177.88 213H164.56C165.4 212.8 166.06 212.2 166.54 211.2C167.02 210.2 167.26 208.76 167.26 206.88V195.6C167.26 191.68 165.9 189.72 163.18 189.72C161.7 189.72 160.4 190.3 159.28 191.46C158.16 192.62 157.6 194.08 157.6 195.84V206.88C157.6 208.76 157.86 210.24 158.38 211.32C158.94 212.36 159.62 212.92 160.42 213H146.92C147.48 212.92 147.98 212.66 148.42 212.22C148.86 211.78 149.22 211.14 149.5 210.3C149.82 209.42 149.98 208.26 149.98 206.82V193.74ZM214.823 208.32C213.423 209.96 211.543 211.3 209.183 212.34C206.863 213.38 204.383 213.9 201.743 213.9C195.583 213.9 190.663 212.04 186.982 208.32C183.343 204.56 181.523 199.74 181.523 193.86C181.523 189.86 182.423 186.2 184.223 182.88C186.023 179.52 188.563 176.9 191.843 175.02C195.163 173.1 198.983 172.14 203.303 172.14C207.583 172.14 211.163 172.92 214.043 174.48V186C213.123 183.64 211.703 181.74 209.783 180.3C207.863 178.86 205.483 178.14 202.643 178.14C199.083 178.14 196.163 179.52 193.883 182.28C191.643 185 190.523 188.48 190.523 192.72C190.523 197.04 191.643 200.6 193.883 203.4C196.163 206.2 199.143 207.6 202.823 207.6C204.983 207.6 207.143 207.06 209.303 205.98C211.463 204.86 213.303 203.34 214.823 201.42V208.32ZM221.643 182.28C221.643 177.88 220.423 175.68 217.983 175.68H217.263L229.263 170.94V187.68C230.143 186.76 231.403 185.9 233.043 185.1C234.683 184.3 236.263 183.9 237.783 183.9C240.463 183.9 242.583 184.74 244.143 186.42C245.743 188.1 246.543 190.52 246.543 193.68V206.7C246.543 208.1 246.683 209.26 246.963 210.18C247.283 211.06 247.643 211.72 248.043 212.16C248.443 212.6 248.943 212.88 249.543 213H236.583C237.303 212.84 237.863 212.24 238.263 211.2C238.663 210.16 238.863 208.72 238.863 206.88V195.6C238.863 191.68 237.483 189.72 234.723 189.72C233.283 189.72 232.003 190.28 230.883 191.4C229.803 192.52 229.263 194 229.263 195.84V206.88C229.263 208.8 229.543 210.28 230.103 211.32C230.663 212.32 231.323 212.88 232.083 213H218.523C219.083 212.92 219.583 212.66 220.023 212.22C220.463 211.78 220.843 211.12 221.163 210.24C221.483 209.32 221.643 208.12 221.643 206.64V182.28ZM269.264 208.14C270.944 208.14 272.584 207.8 274.184 207.12C275.824 206.4 277.204 205.36 278.324 204C277.004 210.6 272.924 213.9 266.084 213.9C262.044 213.9 258.804 212.54 256.364 209.82C253.964 207.06 252.764 203.62 252.764 199.5C252.764 195.1 254.024 191.4 256.544 188.4C259.104 185.4 262.324 183.9 266.204 183.9C269.884 183.9 272.744 185.3 274.784 188.1C276.824 190.86 277.864 194.8 277.904 199.92H260.204C260.724 202.68 261.804 204.74 263.444 206.1C265.124 207.46 267.064 208.14 269.264 208.14ZM270.644 195.6C270.644 193.64 270.224 192.02 269.384 190.74C268.584 189.42 267.444 188.76 265.964 188.76C264.444 188.76 263.144 189.42 262.064 190.74C261.024 192.02 260.404 193.64 260.204 195.6H270.644ZM296.637 213.9C292.357 213.9 288.897 212.58 286.257 209.94C283.617 207.3 282.297 203.8 282.297 199.44C282.297 195.04 283.697 191.36 286.497 188.4C289.297 185.4 292.857 183.9 297.177 183.9C301.457 183.9 304.937 185.22 307.617 187.86C310.337 190.46 311.697 193.94 311.697 198.3C311.697 202.9 310.297 206.66 307.497 209.58C304.697 212.46 301.077 213.9 296.637 213.9ZM297.477 208.5C299.317 208.5 300.817 207.66 301.977 205.98C303.177 204.26 303.777 202.1 303.777 199.5C303.777 196.62 303.077 194.2 301.677 192.24C300.277 190.28 298.517 189.3 296.397 189.3C294.517 189.3 292.997 190.12 291.837 191.76C290.677 193.36 290.097 195.46 290.097 198.06C290.097 201.02 290.797 203.5 292.197 205.5C293.597 207.5 295.357 208.5 297.477 208.5ZM317.968 181.98C317.968 179.82 317.688 178.2 317.128 177.12C316.568 176.04 315.608 175.5 314.248 175.5H313.708L325.648 171.18V206.64C325.648 208.08 325.788 209.26 326.068 210.18C326.348 211.06 326.708 211.74 327.148 212.22C327.628 212.66 328.108 212.92 328.588 213H314.968C315.448 212.92 315.908 212.68 316.348 212.28C316.788 211.84 317.168 211.18 317.488 210.3C317.808 209.42 317.968 208.2 317.968 206.64V181.98Z" fill="url(#paint0_linear_4_412)" shape-rendering="crispEdges"/>
<path d="M116.235 101.018C116.235 94.9393 114.637 91.3987 111.441 90.396H134.189C132.811 90.6467 131.651 91.6807 130.711 93.498C129.771 95.2527 129.301 97.7593 129.301 101.018V144.352H141.991C146.879 144.352 150.201 143.851 151.955 142.848C153.773 141.845 155.527 139.809 157.219 136.738L154.681 153H111.911C113.165 152.749 114.199 151.621 115.013 149.616C115.828 147.611 116.235 144.853 116.235 141.344V101.018ZM194.062 154.41C184.976 154.41 177.581 151.465 171.878 145.574C166.238 139.621 163.418 131.975 163.418 122.638C163.418 116.434 164.797 110.763 167.554 105.624C170.374 100.423 174.322 96.3493 179.398 93.404C184.474 90.4587 190.083 88.986 196.224 88.986C205.248 88.986 212.549 91.9627 218.126 97.916C223.766 103.807 226.586 111.421 226.586 120.758C226.586 130.283 223.547 138.273 217.468 144.728C211.39 151.183 203.588 154.41 194.062 154.41ZM196.224 144.728C201.175 144.728 205.186 142.785 208.256 138.9C211.39 134.952 212.956 129.751 212.956 123.296C212.956 115.901 211.233 109.917 207.786 105.342C204.34 100.767 199.702 98.48 193.874 98.48C188.924 98.48 184.882 100.391 181.748 104.214C178.678 107.974 177.142 113.144 177.142 119.724C177.142 127.307 178.834 133.385 182.218 137.96C185.602 142.472 190.271 144.728 196.224 144.728ZM238.05 101.018C238.05 94.9393 236.452 91.3987 233.256 90.396H256.004C254.625 90.6467 253.466 91.6807 252.526 93.498C251.586 95.2527 251.116 97.7593 251.116 101.018V144.352H263.806C268.694 144.352 272.015 143.851 273.77 142.848C275.587 141.845 277.342 139.809 279.034 136.738L276.496 153H233.726C234.979 152.749 236.013 151.621 236.828 149.616C237.642 147.611 238.05 144.853 238.05 141.344V101.018ZM65.9344 179.46C65.9344 175.82 64.6544 173.68 62.0944 173.04H76.6744L87.2944 197.22L97.7944 173.04H110.934C110.014 173.2 109.234 173.86 108.594 175.02C107.994 176.18 107.694 177.72 107.694 179.64V206.22C107.694 207.74 107.854 208.98 108.174 209.94C108.494 210.9 108.914 211.64 109.434 212.16C109.954 212.68 110.454 212.96 110.934 213H96.6544C97.4544 212.88 98.1344 212.26 98.6944 211.14C99.2544 209.98 99.5344 208.34 99.5344 206.22V183.42L86.0344 213.96L72.1744 183.48V205.86C72.1744 207.46 72.3744 208.8 72.7744 209.88C73.1744 210.92 73.6544 211.68 74.2144 212.16C74.7744 212.64 75.3544 212.92 75.9544 213H62.2744C62.8744 212.92 63.4344 212.64 63.9544 212.16C64.5144 211.68 64.9744 210.92 65.3344 209.88C65.7344 208.8 65.9344 207.46 65.9344 205.86V179.46ZM116.869 191.46C116.869 190.02 116.689 188.88 116.329 188.04C115.969 187.16 115.529 186.5 115.009 186.06C114.529 185.58 113.849 185.24 112.969 185.04H124.549V202.26C124.589 206.14 125.929 208.08 128.569 208.08C130.169 208.08 131.509 207.46 132.589 206.22C133.669 204.98 134.209 203.52 134.209 201.84V191.04C134.209 189.4 133.969 188.06 133.489 187.02C133.009 185.98 132.249 185.32 131.209 185.04H141.829V204.24C141.829 206.04 142.069 207.4 142.549 208.32C143.029 209.24 143.869 209.7 145.069 209.7H145.909L134.449 214.14L134.389 209.76C133.309 211.04 131.949 212.06 130.309 212.82C128.669 213.54 127.089 213.9 125.569 213.9C119.769 213.86 116.869 210.54 116.869 203.94V191.46ZM149.98 193.74C149.98 191.78 149.72 190.36 149.2 189.48C148.68 188.6 147.84 188.16 146.68 188.16H145.84L157.36 183.66L157.42 187.98C158.38 186.86 159.7 185.9 161.38 185.1C163.06 184.3 164.68 183.9 166.24 183.9C168.84 183.9 170.94 184.7 172.54 186.3C174.14 187.86 174.94 190.32 174.94 193.68V206.64C174.94 208.08 175.08 209.26 175.36 210.18C175.68 211.1 176.06 211.78 176.5 212.22C176.94 212.66 177.4 212.92 177.88 213H164.56C165.4 212.8 166.06 212.2 166.54 211.2C167.02 210.2 167.26 208.76 167.26 206.88V195.6C167.26 191.68 165.9 189.72 163.18 189.72C161.7 189.72 160.4 190.3 159.28 191.46C158.16 192.62 157.6 194.08 157.6 195.84V206.88C157.6 208.76 157.86 210.24 158.38 211.32C158.94 212.36 159.62 212.92 160.42 213H146.92C147.48 212.92 147.98 212.66 148.42 212.22C148.86 211.78 149.22 211.14 149.5 210.3C149.82 209.42 149.98 208.26 149.98 206.82V193.74ZM214.823 208.32C213.423 209.96 211.543 211.3 209.183 212.34C206.863 213.38 204.383 213.9 201.743 213.9C195.583 213.9 190.663 212.04 186.982 208.32C183.343 204.56 181.523 199.74 181.523 193.86C181.523 189.86 182.423 186.2 184.223 182.88C186.023 179.52 188.563 176.9 191.843 175.02C195.163 173.1 198.983 172.14 203.303 172.14C207.583 172.14 211.163 172.92 214.043 174.48V186C213.123 183.64 211.703 181.74 209.783 180.3C207.863 178.86 205.483 178.14 202.643 178.14C199.083 178.14 196.163 179.52 193.883 182.28C191.643 185 190.523 188.48 190.523 192.72C190.523 197.04 191.643 200.6 193.883 203.4C196.163 206.2 199.143 207.6 202.823 207.6C204.983 207.6 207.143 207.06 209.303 205.98C211.463 204.86 213.303 203.34 214.823 201.42V208.32ZM221.643 182.28C221.643 177.88 220.423 175.68 217.983 175.68H217.263L229.263 170.94V187.68C230.143 186.76 231.403 185.9 233.043 185.1C234.683 184.3 236.263 183.9 237.783 183.9C240.463 183.9 242.583 184.74 244.143 186.42C245.743 188.1 246.543 190.52 246.543 193.68V206.7C246.543 208.1 246.683 209.26 246.963 210.18C247.283 211.06 247.643 211.72 248.043 212.16C248.443 212.6 248.943 212.88 249.543 213H236.583C237.303 212.84 237.863 212.24 238.263 211.2C238.663 210.16 238.863 208.72 238.863 206.88V195.6C238.863 191.68 237.483 189.72 234.723 189.72C233.283 189.72 232.003 190.28 230.883 191.4C229.803 192.52 229.263 194 229.263 195.84V206.88C229.263 208.8 229.543 210.28 230.103 211.32C230.663 212.32 231.323 212.88 232.083 213H218.523C219.083 212.92 219.583 212.66 220.023 212.22C220.463 211.78 220.843 211.12 221.163 210.24C221.483 209.32 221.643 208.12 221.643 206.64V182.28ZM269.264 208.14C270.944 208.14 272.584 207.8 274.184 207.12C275.824 206.4 277.204 205.36 278.324 204C277.004 210.6 272.924 213.9 266.084 213.9C262.044 213.9 258.804 212.54 256.364 209.82C253.964 207.06 252.764 203.62 252.764 199.5C252.764 195.1 254.024 191.4 256.544 188.4C259.104 185.4 262.324 183.9 266.204 183.9C269.884 183.9 272.744 185.3 274.784 188.1C276.824 190.86 277.864 194.8 277.904 199.92H260.204C260.724 202.68 261.804 204.74 263.444 206.1C265.124 207.46 267.064 208.14 269.264 208.14ZM270.644 195.6C270.644 193.64 270.224 192.02 269.384 190.74C268.584 189.42 267.444 188.76 265.964 188.76C264.444 188.76 263.144 189.42 262.064 190.74C261.024 192.02 260.404 193.64 260.204 195.6H270.644ZM296.637 213.9C292.357 213.9 288.897 212.58 286.257 209.94C283.617 207.3 282.297 203.8 282.297 199.44C282.297 195.04 283.697 191.36 286.497 188.4C289.297 185.4 292.857 183.9 297.177 183.9C301.457 183.9 304.937 185.22 307.617 187.86C310.337 190.46 311.697 193.94 311.697 198.3C311.697 202.9 310.297 206.66 307.497 209.58C304.697 212.46 301.077 213.9 296.637 213.9ZM297.477 208.5C299.317 208.5 300.817 207.66 301.977 205.98C303.177 204.26 303.777 202.1 303.777 199.5C303.777 196.62 303.077 194.2 301.677 192.24C300.277 190.28 298.517 189.3 296.397 189.3C294.517 189.3 292.997 190.12 291.837 191.76C290.677 193.36 290.097 195.46 290.097 198.06C290.097 201.02 290.797 203.5 292.197 205.5C293.597 207.5 295.357 208.5 297.477 208.5ZM317.968 181.98C317.968 179.82 317.688 178.2 317.128 177.12C316.568 176.04 315.608 175.5 314.248 175.5H313.708L325.648 171.18V206.64C325.648 208.08 325.788 209.26 326.068 210.18C326.348 211.06 326.708 211.74 327.148 212.22C327.628 212.66 328.108 212.92 328.588 213H314.968C315.448 212.92 315.908 212.68 316.348 212.28C316.788 211.84 317.168 211.18 317.488 210.3C317.808 209.42 317.968 208.2 317.968 206.64V181.98Z" fill="white" fill-opacity="0.9" shape-rendering="crispEdges"/>
</g>
<defs>
<filter id="filter0_ddif_4_412" x="-25.9056" y="0.986023" width="442.494" height="301.154" filterUnits="userSpaceOnUse" color-interpolation-filters="sRGB">
<feFlood flood-opacity="0" result="BackgroundImageFix"/>
<feColorMatrix in="SourceAlpha" type="matrix" values="0 0 0 0 0 0 0 0 0 0 0 0 0 0 0 0 0 0 127 0" result="hardAlpha"/>
<feOffset/>
<feGaussianBlur stdDeviation="44"/>
<feComposite in2="hardAlpha" operator="out"/>
<feColorMatrix type="matrix" values="0 0 0 0 0.368627 0 0 0 0 0.266667 0 0 0 0 0.866667 0 0 0 0.66 0"/>
<feBlend mode="normal" in2="BackgroundImageFix" result="effect1_dropShadow_4_412"/>
<feColorMatrix in="SourceAlpha" type="matrix" values="0 0 0 0 0 0 0 0 0 0 0 0 0 0 0 0 0 0 127 0" result="hardAlpha"/>
<feOffset/>
<feGaussianBlur stdDeviation="10"/>
<feComposite in2="hardAlpha" operator="out"/>
<feColorMatrix type="matrix" values="0 0 0 0 0.368627 0 0 0 0 0.266667 0 0 0 0 0.866667 0 0 0 0.66 0"/>
<feBlend mode="normal" in2="effect1_dropShadow_4_412" result="effect2_dropShadow_4_412"/>
<feBlend mode="normal" in="SourceGraphic" in2="effect2_dropShadow_4_412" result="shape"/>
<feColorMatrix in="SourceAlpha" type="matrix" values="0 0 0 0 0 0 0 0 0 0 0 0 0 0 0 0 0 0 127 0" result="hardAlpha"/>
<feOffset/>
<feGaussianBlur stdDeviation="4"/>
<feComposite in2="hardAlpha" operator="arithmetic" k2="-1" k3="1"/>
<feColorMatrix type="matrix" values="0 0 0 0 0.368627 0 0 0 0 0.266667 0 0 0 0 0.866667 0 0 0 0.66 0"/>
<feBlend mode="normal" in2="shape" result="effect3_innerShadow_4_412"/>
<feGaussianBlur stdDeviation="0.3" result="effect4_foregroundBlur_4_412"/>
</filter>
<linearGradient id="paint0_linear_4_412" x1="195" y1="88" x2="195" y2="221" gradientUnits="userSpaceOnUse">
<stop stop-color="white"/>
<stop offset="1" stop-color="white" stop-opacity="0"/>
</linearGradient>
</defs>
</svg>
